<svg width="30" height="30" viewBox="0 0 30 30" fill="none" xmlns="http://www.w3.org/2000/svg">
<path fill-rule="evenodd" clip-rule="evenodd" d="M14.2308 2.30769C7.64458 2.30769 2.30769 7.64034 2.30769 14.2157C2.30769 20.7911 7.64458 26.1237 14.2308 26.1237C17.5165 26.1237 20.4899 24.7977 22.6475 22.65C24.815 20.4926 26.1538 17.5113 26.1538 14.2157C26.1538 7.64034 20.817 2.30769 14.2308 2.30769ZM0 14.2157C0 6.36332 6.37258 0 14.2308 0C22.089 0 28.4616 6.36332 28.4616 14.2157C28.4616 17.7338 27.181 20.9546 25.0624 23.436L29.6616 28.0298C30.1125 28.4802 30.1128 29.2107 29.6625 29.6616C29.2122 30.1125 28.4816 30.1128 28.0308 29.6625L23.4273 25.0644C20.9475 27.164 17.7363 28.4313 14.2308 28.4313C6.37258 28.4313 0 22.068 0 14.2157Z" fill="white" fill-opacity="0.25"/>
</svg>
